<svg xmlns="http://www.w3.org/2000/svg" xmlns:xlink="http://www.w3.org/1999/xlink" viewBox="0 0 430 430" width="430" height="430" preserveAspectRatio="xMidYMid meet" style="width: 100%; height: 100%; transform: translate3d(0px, 0px, 0px); content-visibility: visible;"><defs><clipPath id="__lottie_element_8267"><rect width="430" height="430" x="0" y="0"/></clipPath><clipPath id="__lottie_element_8269"><path d="M0,0 L430,0 L430,430 L0,430z"/></clipPath></defs><g clip-path="url(#__lottie_element_8267)"><g clip-path="url(#__lottie_element_8269)" transform="matrix(1,0,0,1,0,0)" opacity="1" style="display: block;"><g transform="matrix(1,0,0,1,-6376.9990234375,-576)" opacity="1" style="display: block;"><g opacity="1" transform="matrix(1,0,0,1,6592.27978515625,875.3109741210938)"><path class="tertiary" fill="rgb(146,20,12)" fill-opacity="1" d=" M69.37999725341797,-97.2020034790039 C69.37999725341797,-97.2020034790039 69.37999725341797,-19.989999771118164 69.37999725341797,-19.989999771118164 C69.37999725341797,-19.989999771118164 69.37999725341797,70.19599914550781 69.37999725341797,70.19599914550781 C69.37999725341797,72.7030029296875 66.48799896240234,74.1050033569336 64.52100372314453,72.5510025024414 C64.52100372314453,72.5510025024414 1.8589999675750732,23.06599998474121 1.8589999675750732,23.06599998474121 C0.7689999938011169,22.204999923706055 -0.7689999938011169,22.204999923706055 -1.8589999675750732,23.06599998474121 C-1.8589999675750732,23.06599998474121 -64.52100372314453,72.5510025024414 -64.52100372314453,72.5510025024414 C-66.48799896240234,74.1050033569336 -69.37999725341797,72.7030029296875 -69.37999725341797,70.19599914550781 C-69.37999725341797,70.19599914550781 -69.37999725341797,-32.53900146484375 -69.37999725341797,-32.53900146484375 C-69.37999725341797,-32.53900146484375 -69.37999725341797,-97.2020034790039 -69.37999725341797,-97.2020034790039"/></g><g opacity="0.5" transform="matrix(1,0,0,1,6530.55322265625,875.3109741210938)" style="mix-blend-mode: multiply;"><path class="tertiary" fill="rgb(146,20,12)" fill-opacity="1" d=" M-7.6539998054504395,-97.2020034790039 C-7.6539998054504395,-97.2020034790039 -7.6539998054504395,-31.413000106811523 -7.6539998054504395,-31.413000106811523 C-7.6539998054504395,-31.413000106811523 -7.6539998054504395,70.19599914550781 -7.6539998054504395,70.19599914550781 C-7.6539998054504395,72.7030029296875 -4.761000156402588,74.1050033569336 -2.7939999103546143,72.5510025024414 C-2.7939999103546143,72.5510025024414 7.6539998054504395,64.30000305175781 7.6539998054504395,64.30000305175781 C7.6539998054504395,64.30000305175781 7.6539998054504395,-96.54100036621094 7.6539998054504395,-96.54100036621094"/></g></g><g transform="matrix(1,0,0,1,-35,-35)" opacity="1" style="display: block;"><g opacity="1" transform="matrix(1,0,0,1,250,192.61900329589844)"><path class="secondary" fill="rgb(255,199,56)" fill-opacity="1" d=" M-106.58200073242188,-1.9299999475479126 C-106.58200073242188,-1.9299999475479126 -85.77200317382812,-26.687000274658203 -85.77200317382812,-26.687000274658203 C-85.2699966430664,-27.284000396728516 -85.02100372314453,-28.05299949645996 -85.07599639892578,-28.829999923706055 C-85.07599639892578,-28.829999923706055 -87.36299896240234,-61.09299850463867 -87.36299896240234,-61.09299850463867 C-87.46600341796875,-62.54800033569336 -86.50800323486328,-63.86600112915039 -85.09200286865234,-64.21700286865234 C-85.09200286865234,-64.21700286865234 -53.689998626708984,-71.99400329589844 -53.689998626708984,-71.99400329589844 C-52.93199920654297,-72.18199920654297 -52.277000427246094,-72.65899658203125 -51.86399841308594,-73.3219985961914 C-51.86399841308594,-73.3219985961914 -34.779998779296875,-100.78800201416016 -34.779998779296875,-100.78800201416016 C-34.00899887084961,-102.02799987792969 -32.45500183105469,-102.53199768066406 -31.101999282836914,-101.98200225830078 C-31.101999282836914,-101.98200225830078 -1.1299999952316284,-89.7969970703125 -1.1299999952316284,-89.7969970703125 C-0.4059999883174896,-89.50199890136719 0.4059999883174896,-89.50199890136719 1.1299999952316284,-89.7969970703125 C1.1299999952316284,-89.7969970703125 31.101999282836914,-101.98200225830078 31.101999282836914,-101.98200225830078 C32.45500183105469,-102.53199768066406 34.00899887084961,-102.02799987792969 34.779998779296875,-100.78800201416016 C34.779998779296875,-100.78800201416016 51.8650016784668,-73.32099914550781 51.8650016784668,-73.32099914550781 C52.27799987792969,-72.65799713134766 52.93299865722656,-72.18099975585938 53.691001892089844,-71.99299621582031 C53.691001892089844,-71.99299621582031 85.09200286865234,-64.21600341796875 85.09200286865234,-64.21600341796875 C86.50800323486328,-63.8650016784668 87.46700286865234,-62.547000885009766 87.36399841308594,-61.09199905395508 C87.36399841308594,-61.09199905395508 85.07599639892578,-28.829999923706055 85.07599639892578,-28.829999923706055 C85.02100372314453,-28.05299949645996 85.2699966430664,-27.284000396728516 85.77200317382812,-26.687000274658203 C85.77200317382812,-26.687000274658203 106.58200073242188,-1.9299999475479126 106.58200073242188,-1.9299999475479126 C107.5199966430664,-0.8140000104904175 107.5199966430664,0.8140000104904175 106.58200073242188,1.9299999475479126 C106.58200073242188,1.9299999475479126 85.77200317382812,26.687000274658203 85.77200317382812,26.687000274658203 C85.2699966430664,27.284000396728516 85.02100372314453,28.05299949645996 85.07599639892578,28.829999923706055 C85.07599639892578,28.829999923706055 87.36299896240234,61.09299850463867 87.36299896240234,61.09299850463867 C87.46600341796875,62.54800033569336 86.50800323486328,63.86600112915039 85.09200286865234,64.21700286865234 C85.09200286865234,64.21700286865234 53.689998626708984,71.99400329589844 53.689998626708984,71.99400329589844 C52.93199920654297,72.18199920654297 52.277000427246094,72.65899658203125 51.86399841308594,73.3219985961914 C51.86399841308594,73.3219985961914 34.779998779296875,100.78800201416016 34.779998779296875,100.78800201416016 C34.00899887084961,102.02799987792969 32.45500183105469,102.53199768066406 31.101999282836914,101.98200225830078 C31.101999282836914,101.98200225830078 1.1299999952316284,89.7969970703125 1.1299999952316284,89.7969970703125 C0.4059999883174896,89.50199890136719 -0.4059999883174896,89.50199890136719 -1.1299999952316284,89.7969970703125 C-1.1299999952316284,89.7969970703125 -31.101999282836914,101.98200225830078 -31.101999282836914,101.98200225830078 C-32.45500183105469,102.53199768066406 -34.00899887084961,102.02799987792969 -34.779998779296875,100.78800201416016 C-34.779998779296875,100.78800201416016 -51.8650016784668,73.32099914550781 -51.8650016784668,73.32099914550781 C-52.27799987792969,72.65799713134766 -52.93299865722656,72.18099975585938 -53.691001892089844,71.99299621582031 C-53.691001892089844,71.99299621582031 -85.09200286865234,64.21600341796875 -85.09200286865234,64.21600341796875 C-86.50800323486328,63.8650016784668 -87.46700286865234,62.547000885009766 -87.36399841308594,61.09199905395508 C-87.36399841308594,61.09199905395508 -85.07599639892578,28.829999923706055 -85.07599639892578,28.829999923706055 C-85.02100372314453,28.05299949645996 -85.2699966430664,27.284000396728516 -85.77200317382812,26.687000274658203 C-85.77200317382812,26.687000274658203 -106.58200073242188,1.9299999475479126 -106.58200073242188,1.9299999475479126 C-107.5199966430664,0.8140000104904175 -107.5199966430664,-0.8140000104904175 -106.58200073242188,-1.9299999475479126z"/></g><g opacity="1" transform="matrix(1,0,0,1,250,192.61900329589844)"><path class="primary" fill="rgb(235,230,239)" fill-opacity="1" d=" M-62.35599899291992,0 C-62.35599899291992,34.4379997253418 -34.4379997253418,62.35599899291992 0,62.35599899291992 C34.4379997253418,62.35599899291992 62.35599899291992,34.4379997253418 62.35599899291992,0 C62.35599899291992,-34.4379997253418 34.4379997253418,-62.35599899291992 0,-62.35599899291992 C-34.4379997253418,-62.35599899291992 -62.35599899291992,-34.4379997253418 -62.35599899291992,0z"/></g><g opacity="0.5" transform="matrix(1,0,0,1,185.9080047607422,192.61900329589844)" style="mix-blend-mode: multiply;"><g opacity="1" transform="matrix(1,0,0,1,0,0)"><path class="secondary" fill="rgb(255,199,56)" fill-opacity="1" d=" M27.534000396728516,73.98200225830078 C27.121000289916992,73.31900024414062 26.465999603271484,72.84200286865234 25.70800018310547,72.65399932861328 C25.70800018310547,72.65399932861328 -5.692999839782715,64.87699890136719 -5.692999839782715,64.87699890136719 C-7.109000205993652,64.5260009765625 -8.067000389099121,63.20800018310547 -7.964000225067139,61.75299835205078 C-7.964000225067139,61.75299835205078 -5.676000118255615,29.490999221801758 -5.676000118255615,29.490999221801758 C-5.620999813079834,28.714000701904297 -5.870999813079834,27.94499969482422 -6.372000217437744,27.347999572753906 C-6.372000217437744,27.347999572753906 -27.183000564575195,2.5910000801086426 -27.183000564575195,2.5910000801086426 C-28.121000289916992,1.475000023841858 -28.121000289916992,-0.15399999916553497 -27.183000564575195,-1.2699999809265137 C-27.183000564575195,-1.2699999809265137 -6.372000217437744,-26.027000427246094 -6.372000217437744,-26.027000427246094 C-5.870999813079834,-26.624000549316406 -5.620999813079834,-27.392000198364258 -5.676000118255615,-28.16900062561035 C-5.676000118255615,-28.16900062561035 -7.964000225067139,-60.43199920654297 -7.964000225067139,-60.43199920654297 C-8.067000389099121,-61.887001037597656 -7.107999801635742,-63.20600128173828 -5.691999912261963,-63.55699920654297 C-5.691999912261963,-63.55699920654297 25.708999633789062,-71.33300018310547 25.708999633789062,-71.33300018310547 C26.466999053955078,-71.52100372314453 27.121999740600586,-71.99800109863281 27.53499984741211,-72.66100311279297 C27.53499984741211,-72.66100311279297 43.194000244140625,-97.83399963378906 43.194000244140625,-97.83399963378906 C43.194000244140625,-97.83399963378906 32.9900016784668,-101.98200225830078 32.9900016784668,-101.98200225830078 C31.63599967956543,-102.53199768066406 30.083999633789062,-102.02799987792969 29.312999725341797,-100.78800201416016 C29.312999725341797,-100.78800201416016 12.227999687194824,-73.3219985961914 12.227999687194824,-73.3219985961914 C11.8149995803833,-72.65899658203125 11.15999984741211,-72.18199920654297 10.402000427246094,-71.99400329589844 C10.402000427246094,-71.99400329589844 -20.999000549316406,-64.21700286865234 -20.999000549316406,-64.21700286865234 C-22.415000915527344,-63.86600112915039 -23.374000549316406,-62.54800033569336 -23.270999908447266,-61.09299850463867 C-23.270999908447266,-61.09299850463867 -20.982999801635742,-28.829999923706055 -20.982999801635742,-28.829999923706055 C-20.92799949645996,-28.052000045776367 -21.17799949645996,-27.284000396728516 -21.68000030517578,-26.687000274658203 C-21.68000030517578,-26.687000274658203 -42.4900016784668,-1.9299999475479126 -42.4900016784668,-1.9299999475479126 C-43.428001403808594,-0.8140000104904175 -43.428001403808594,0.8140000104904175 -42.4900016784668,1.9299999475479126 C-42.4900016784668,1.9299999475479126 -21.68000030517578,26.687000274658203 -21.68000030517578,26.687000274658203 C-21.17799949645996,27.284000396728516 -20.92799949645996,28.052000045776367 -20.982999801635742,28.829999923706055 C-20.982999801635742,28.829999923706055 -23.270999908447266,61.09199905395508 -23.270999908447266,61.09199905395508 C-23.374000549316406,62.547000885009766 -22.416000366210938,63.8650016784668 -21,64.21600341796875 C-21,64.21600341796875 10.401000022888184,71.99299621582031 10.401000022888184,71.99299621582031 C11.159000396728516,72.18099975585938 11.814000129699707,72.65799713134766 12.22700023651123,73.32099914550781 C12.22700023651123,73.32099914550781 29.312999725341797,100.78800201416016 29.312999725341797,100.78800201416016 C30.083999633789062,102.02799987792969 31.636999130249023,102.53199768066406 32.9900016784668,101.98200225830078 C32.9900016784668,101.98200225830078 42.5369987487793,98.10099792480469 42.5369987487793,98.10099792480469 C42.5369987487793,98.10099792480469 27.534000396728516,73.98200225830078 27.534000396728516,73.98200225830078z"/></g></g><g opacity="0.5" transform="matrix(1,0,0,1,224.00399780273438,192.61900329589844)" style="mix-blend-mode: multiply;"><path class="primary" fill="rgb(235,230,239)" fill-opacity="1" d=" M-21.054000854492188,0.6610000133514404 C-21.054000854492188,-32.11199951171875 4.235000133514404,-58.959999084472656 36.36000061035156,-61.481998443603516 C32.98699951171875,-62.047000885009766 29.527999877929688,-62.35599899291992 25.9950008392334,-62.35599899291992 C-8.442999839782715,-62.35599899291992 -36.36000061035156,-34.4379997253418 -36.36000061035156,0 C-36.36000061035156,34.4379997253418 -8.442999839782715,62.35599899291992 25.9950008392334,62.35599899291992 C27.660999298095703,62.35599899291992 29.305999755859375,62.270999908447266 30.937999725341797,62.143001556396484 C1.4359999895095825,57.20500183105469 -21.054000854492188,31.56599998474121 -21.054000854492188,0.6610000133514404z"/></g></g><g transform="matrix(1,0,0,1,-35,-35)" opacity="1" style="display: block;"><g opacity="1" transform="matrix(1,0,0,1,250,195.4709930419922)"><path stroke-linecap="round" stroke-linejoin="round" fill-opacity="0" class="quaternary" stroke="rgb(75,179,253)" stroke-opacity="1" stroke-width="7" d=" M-25.360000610351562,6.329999923706055 C-25.360000610351562,6.329999923706055 -12.67300033569336,19.016000747680664 -12.67300033569336,19.016000747680664 C-12.67300033569336,19.016000747680664 25.360000610351562,-19.016000747680664 25.360000610351562,-19.016000747680664"/></g></g></g></g></svg>